<svg width="580" height="510" viewBox="0 0 580 510" fill="none" xmlns="http://www.w3.org/2000/svg">
<mask id="mask0_3_2" style="mask-type:alpha" maskUnits="userSpaceOnUse" x="0" y="359" width="577" height="150">
<rect y="359" width="577" height="150" rx="75" fill="#7E99FB"/>
<rect x="477" y="359" width="100" height="75" fill="#7E99FB"/>
<rect y="434" width="100" height="75" fill="#7E99FB"/>
</mask>
<g mask="url(#mask0_3_2)">
<rect width="577" height="150" transform="translate(0 360)" fill="url(#paint0_linear_3_2)"/>
<ellipse cx="452" cy="431" rx="17" ry="16" fill="#C0EFC5"/>
<ellipse cx="502" cy="431" rx="17" ry="16" fill="#C0EFC5"/>
</g>
<mask id="mask1_3_2" style="mask-type:alpha" maskUnits="userSpaceOnUse" x="1" y="180" width="577" height="150">
<rect x="1" y="180" width="100" height="75" fill="white"/>
<rect x="478" y="255" width="100" height="75" fill="white"/>
<rect x="1" y="180" width="577" height="150" rx="75" fill="white"/>
</mask>
<g mask="url(#mask1_3_2)">
<rect width="577" height="150" transform="translate(1 180)" fill="url(#paint1_linear_3_2)"/>
<ellipse cx="503" cy="258" rx="17" ry="16" fill="#FA8D8D"/>
<ellipse cx="453" cy="258" rx="17" ry="16" fill="#C0EFC5"/>
</g>
<mask id="mask2_3_2" style="mask-type:alpha" maskUnits="userSpaceOnUse" x="1" y="0" width="380" height="150">
<rect x="1" width="100" height="75" fill="white"/>
<rect x="281" y="75" width="100" height="75" fill="white"/>
<rect x="1" width="380" height="150" rx="75" fill="white"/>
</mask>
<g mask="url(#mask2_3_2)">
<rect width="381" height="150" transform="matrix(1 0 0 -1 0 150)" fill="url(#paint2_linear_3_2)"/>
</g>
<defs>
<linearGradient id="paint0_linear_3_2" x1="1.2897e-05" y1="150" x2="577" y2="-1.32476e-05" gradientUnits="userSpaceOnUse">
<stop stop-color="#7E99FB"/>
<stop offset="0.727169" stop-color="#A8BBFF"/>
</linearGradient>
<linearGradient id="paint1_linear_3_2" x1="0" y1="0" x2="577" y2="150" gradientUnits="userSpaceOnUse">
<stop stop-color="#A8BBFF"/>
<stop offset="1" stop-color="#8CA4FC"/>
</linearGradient>
<linearGradient id="paint2_linear_3_2" x1="381" y1="0" x2="0.270481" y2="150.683" gradientUnits="userSpaceOnUse">
<stop stop-color="#7E99FB"/>
<stop offset="0.655544" stop-color="#AEBFFB"/>
</linearGradient>
</defs>
</svg>
